<svg width="45" height="45" viewBox="0 0 45 45" fill="none" xmlns="http://www.w3.org/2000/svg">
<path d="M45 22.5C45 34.9264 34.9264 45 22.5 45C10.0736 45 0 34.9264 0 22.5C0 10.0736 10.0736 0 22.5 0C34.9264 0 45 10.0736 45 22.5Z" fill="#1D7FA9"/>
<path d="M22.4807 12C19.675 12.0051 17.1276 13.1107 15.2468 14.908L13.7347 13.3959C13.0945 12.7558 12 13.2092 12 14.1145V19.7903C12 20.3515 12.4549 20.8065 13.0161 20.8065H18.692C19.5973 20.8065 20.0507 19.712 19.4105 19.0718L17.6429 17.3042C18.9496 16.0806 20.6405 15.4029 22.4369 15.3874C26.3489 15.3536 29.6465 18.5195 29.6126 22.5613C29.5806 26.3955 26.472 29.6129 22.5 29.6129C20.7587 29.6129 19.113 28.9915 17.8161 27.8535C17.6153 27.6773 17.312 27.688 17.1231 27.8769L15.4439 29.5561C15.2376 29.7624 15.2478 30.0987 15.4643 30.2942C17.3261 31.976 19.7935 33 22.5 33C28.299 33 33 28.299 33 22.5001C33 16.7078 28.2731 11.9896 22.4807 12Z" fill="white"/>
</svg>
