<svg width="45" height="45" viewBox="0 0 45 45" fill="none" xmlns="http://www.w3.org/2000/svg">
<circle cx="22.5" cy="22.5" r="22.5" fill="#CB9771"/>
<path d="M33.8671 21.9297C31.7958 17.7965 27.6953 15 23 15C18.3047 15 14.203 17.7984 12.1329 21.9301C12.0455 22.1068 12 22.3021 12 22.5002C12 22.6983 12.0455 22.8936 12.1329 23.0703C14.2042 27.2035 18.3047 30 23 30C27.6953 30 31.797 27.2016 33.8671 23.0699C33.9545 22.8932 34 22.6979 34 22.4998C34 22.3017 33.9545 22.1064 33.8671 21.9297ZM23 28.125C21.9122 28.125 20.8488 27.7951 19.9444 27.177C19.0399 26.5589 18.3349 25.6804 17.9187 24.6526C17.5024 23.6248 17.3935 22.4938 17.6057 21.4026C17.8179 20.3115 18.3417 19.3092 19.1109 18.5225C19.8801 17.7359 20.8601 17.2001 21.927 16.9831C22.9939 16.766 24.0998 16.8774 25.1048 17.3032C26.1098 17.7289 26.9687 18.4499 27.5731 19.3749C28.1774 20.2999 28.5 21.3875 28.5 22.5C28.5004 23.2388 28.3583 23.9704 28.0821 24.653C27.8058 25.3356 27.4007 25.9559 26.8899 26.4783C26.3791 27.0007 25.7726 27.415 25.1052 27.6976C24.4377 27.9801 23.7224 28.1254 23 28.125ZM23 18.75C22.6727 18.7547 22.3476 18.8045 22.0333 18.898C22.2923 19.2581 22.4166 19.7011 22.3837 20.1469C22.3507 20.5926 22.1626 21.0115 21.8536 21.3275C21.5445 21.6436 21.135 21.836 20.6991 21.8697C20.2633 21.9034 19.8301 21.7763 19.4781 21.5113C19.2776 22.2666 19.3138 23.0672 19.5815 23.8004C19.8493 24.5336 20.3351 25.1624 20.9706 25.5984C21.6061 26.0344 22.3593 26.2556 23.1241 26.2309C23.889 26.2062 24.627 25.9368 25.2343 25.4607C25.8417 24.9845 26.2877 24.3256 26.5096 23.5766C26.7316 22.8276 26.7183 22.0262 26.4716 21.2854C26.2249 20.5445 25.7573 19.9014 25.1346 19.4466C24.5118 18.9918 23.7652 18.7482 23 18.75Z" fill="white"/>
</svg>
